<?xml version="1.0" encoding="UTF-8"?>
<!DOCTYPE svg PUBLIC "-//W3C//DTD SVG 1.1//EN" "http://www.w3.org/Graphics/SVG/1.1/DTD/svg11.dtd">
<svg xmlns="http://www.w3.org/2000/svg" version="1.1" width="500px" height="500px" style="shape-rendering:geometricPrecision; text-rendering:geometricPrecision; image-rendering:optimizeQuality; fill-rule:evenodd; clip-rule:evenodd" xmlns:xlink="http://www.w3.org/1999/xlink">
<g><path style="opacity:1" fill="#9b4922" d="M -0.5,-0.5 C 166.167,-0.5 332.833,-0.5 499.5,-0.5C 499.5,166.167 499.5,332.833 499.5,499.5C 332.833,499.5 166.167,499.5 -0.5,499.5C -0.5,332.833 -0.5,166.167 -0.5,-0.5 Z"/></g>
<g><path style="opacity:1" fill="#bf8e73" d="M 255.5,219.5 C 257.924,219.192 260.257,219.526 262.5,220.5C 262.376,221.107 262.043,221.44 261.5,221.5C 259.5,220.833 257.5,220.167 255.5,219.5 Z"/></g>
<g><path style="opacity:1" fill="#eaddd1" d="M 255.5,219.5 C 262.989,218.344 270.655,218.178 278.5,219C 275.574,219.218 272.74,219.718 270,220.5C 265.556,237.57 261.056,254.57 256.5,271.5C 255.957,271.56 255.624,271.893 255.5,272.5C 260.652,273.814 265.652,273.814 270.5,272.5C 275.633,271.204 279.467,268.204 282,263.5C 284.789,256.341 286.956,249.008 288.5,241.5C 292.109,240.329 298.443,240.163 307.5,241C 307.957,241.414 308.291,241.914 308.5,242.5C 307.668,245.161 306.834,247.828 306,250.5C 305.789,242.965 301.956,240.131 294.5,242C 292.255,246.569 290.922,251.403 290.5,256.5C 294.683,257.154 297.516,255.488 299,251.5C 298.578,255.133 297.911,258.8 297,262.5C 296.667,262.833 296.333,263.167 296,263.5C 296.534,258.533 294.367,256.533 289.5,257.5C 287.699,263.037 286.366,268.704 285.5,274.5C 293.839,276.123 299.673,273.123 303,265.5C 302.653,268.725 301.819,271.892 300.5,275C 278.142,275.325 260.475,274.825 247.5,273.5C 251.963,256.11 256.63,238.777 261.5,221.5C 262.043,221.44 262.376,221.107 262.5,220.5C 260.257,219.526 257.924,219.192 255.5,219.5 Z"/></g>
<g><path style="opacity:1" fill="#eaddd1" d="M 192.5,220.5 C 193.347,228.482 194.014,236.482 194.5,244.5C 194.5,245.167 194.833,245.5 195.5,245.5C 194.191,248.778 192.358,251.778 190,254.5C 189.034,244.172 188.2,233.838 187.5,223.5C 187.196,222.85 186.863,222.183 186.5,221.5C 188.396,220.534 190.396,220.201 192.5,220.5 Z"/></g>
<g><path style="opacity:1" fill="#e7d8cb" d="M 209.5,224.5 C 210.833,223.833 210.833,223.167 209.5,222.5C 209.414,221.504 209.748,220.671 210.5,220C 213.833,219.333 217.167,219.333 220.5,220C 217.809,219.946 215.976,221.113 215,223.5C 212.434,233.499 209.934,243.499 207.5,253.5C 207.133,254.868 203.8,255.034 197.5,254C 199.101,253.727 200.601,253.227 202,252.5C 204.504,243.148 207.004,233.814 209.5,224.5 Z"/></g>
<g><path style="opacity:1" fill="#e7d8cb" d="M 124.5,243.5 C 126.5,242.167 128.5,242.167 130.5,243.5C 126.367,255.809 118.533,258.809 107,252.5C 101.703,240.319 104.203,230.152 114.5,222C 120.24,218.877 126.073,218.71 132,221.5C 133.261,221.241 134.261,220.574 135,219.5C 135.13,223.347 134.296,227.014 132.5,230.5C 131.366,221.769 126.7,218.935 118.5,222C 115.894,223.938 114.061,226.438 113,229.5C 111.122,235.22 109.622,241.053 108.5,247C 110.873,254.875 115.373,256.375 122,251.5C 123.144,248.92 123.978,246.253 124.5,243.5 Z"/></g>
<g><path style="opacity:1" fill="#e9dbcf" d="M 155.5,254.5 C 154.833,254.5 154.5,254.167 154.5,253.5C 158.123,251.946 160.623,249.279 162,245.5C 163.893,239.427 165.393,233.26 166.5,227C 166.216,222.423 163.716,220.257 159,220.5C 153.994,221.011 150.66,223.678 149,228.5C 145.743,235.52 144.409,242.853 145,250.5C 145.377,251.942 146.21,252.942 147.5,253.5C 147.5,254.167 147.167,254.5 146.5,254.5C 138.566,249.929 136.399,243.262 140,234.5C 144.546,223.317 152.713,218.484 164.5,220C 171.138,224.017 173.304,229.85 171,237.5C 168.787,245.879 163.62,251.546 155.5,254.5 Z"/></g>
<g><path style="opacity:1" fill="#9c4b24" d="M 154.5,253.5 C 152.167,253.5 149.833,253.5 147.5,253.5C 146.21,252.942 145.377,251.942 145,250.5C 144.409,242.853 145.743,235.52 149,228.5C 150.66,223.678 153.994,221.011 159,220.5C 163.716,220.257 166.216,222.423 166.5,227C 165.393,233.26 163.893,239.427 162,245.5C 160.623,249.279 158.123,251.946 154.5,253.5 Z"/></g>
<g><path style="opacity:1" fill="#e8d8cc" d="M 235.5,219.5 C 249.267,217.767 255.101,223.767 253,237.5C 248.237,252.013 238.737,257.18 224.5,253C 219.175,244.843 219.342,236.676 225,228.5C 228.103,224.886 231.603,221.886 235.5,219.5 Z"/></g>
<g><path style="opacity:1" fill="#9c4b24" d="M 237.5,220.5 C 246.33,219.162 249.83,222.829 248,231.5C 246.559,238.275 244.059,244.609 240.5,250.5C 237.03,253.394 233.03,254.227 228.5,253C 226.955,251.178 226.288,249.011 226.5,246.5C 226.947,238.659 229.113,231.326 233,224.5C 234.397,222.93 235.897,221.596 237.5,220.5 Z"/></g>
<g><path style="opacity:1" fill="#d5b4a1" d="M 209.5,222.5 C 210.833,223.167 210.833,223.833 209.5,224.5C 205.081,231.672 200.415,238.672 195.5,245.5C 194.833,245.5 194.5,245.167 194.5,244.5C 199.5,237.167 204.5,229.833 209.5,222.5 Z"/></g>
<g><path style="opacity:1" fill="#d1ae99" d="M 192.5,220.5 C 190.396,220.201 188.396,220.534 186.5,221.5C 186.863,222.183 187.196,222.85 187.5,223.5C 184.367,233.007 181.367,242.674 178.5,252.5C 179.729,253.281 181.062,253.781 182.5,254C 174.595,254.637 172.928,254.471 177.5,253.5C 180.167,242.833 182.833,232.167 185.5,221.5C 184.325,221.719 183.325,221.386 182.5,220.5C 185.98,219.194 189.313,219.194 192.5,220.5 Z"/></g>
<g><path style="opacity:1" fill="#c79a83" d="M 130.5,243.5 C 128.5,242.167 126.5,242.167 124.5,243.5C 122.712,243.785 121.045,243.452 119.5,242.5C 124.833,241.167 130.167,241.167 135.5,242.5C 133.955,243.452 132.288,243.785 130.5,243.5 Z"/></g>
<g><path style="opacity:1" fill="#e9dbcf" d="M 325.5,241.5 C 326.88,249.63 327.714,257.963 328,266.5C 328.383,265.944 328.883,265.611 329.5,265.5C 328.026,269.109 326.026,272.443 323.5,275.5C 322.502,267.524 321.835,259.524 321.5,251.5C 321.74,248.421 321.407,245.421 320.5,242.5C 322.045,241.548 323.712,241.215 325.5,241.5 Z"/></g>
<g><path style="opacity:1" fill="#e7d8cb" d="M 342.5,248.5 C 343.833,247.167 343.833,245.833 342.5,244.5C 342.539,243.417 342.873,242.417 343.5,241.5C 346.784,240.343 350.118,240.176 353.5,241C 351.899,241.273 350.399,241.773 349,242.5C 346.289,253.068 343.455,263.568 340.5,274C 341.833,274.333 343.167,274.667 344.5,275C 336.6,276.104 333.6,275.937 335.5,274.5C 337.525,265.731 339.859,257.064 342.5,248.5 Z"/></g>
<g><path style="opacity:1" fill="#e9dace" d="M 364.5,276.5 C 365.833,275.833 367.167,275.167 368.5,274.5C 371.195,274.067 373.362,272.734 375,270.5C 379.216,262.305 381.216,253.638 381,244.5C 377.547,241.231 373.714,240.731 369.5,243C 366.469,245.559 364.302,248.726 363,252.5C 361.364,257.376 360.198,262.376 359.5,267.5C 359.081,271.012 360.414,273.346 363.5,274.5C 363.158,275.338 362.492,275.672 361.5,275.5C 358.572,274.409 356.406,272.409 355,269.5C 352.922,257.827 356.755,248.661 366.5,242C 384.14,238.032 390.307,244.865 385,262.5C 380.948,271.406 374.114,276.073 364.5,276.5 Z"/></g>
<g><path style="opacity:1" fill="#9c4a24" d="M 368.5,274.5 C 366.833,274.5 365.167,274.5 363.5,274.5C 360.414,273.346 359.081,271.012 359.5,267.5C 360.198,262.376 361.364,257.376 363,252.5C 364.302,248.726 366.469,245.559 369.5,243C 373.714,240.731 377.547,241.231 381,244.5C 381.216,253.638 379.216,262.305 375,270.5C 373.362,272.734 371.195,274.067 368.5,274.5 Z"/></g>
<g><path style="opacity:1" fill="#d1ac97" d="M 147.5,253.5 C 149.833,253.5 152.167,253.5 154.5,253.5C 154.5,254.167 154.833,254.5 155.5,254.5C 152.5,255.833 149.5,255.833 146.5,254.5C 147.167,254.5 147.5,254.167 147.5,253.5 Z"/></g>
<g><path style="opacity:1" fill="#d5b5a2" d="M 342.5,244.5 C 343.833,245.833 343.833,247.167 342.5,248.5C 342.631,247.761 342.464,247.094 342,246.5C 338.307,253.241 334.14,259.574 329.5,265.5C 333.085,257.989 337.418,250.989 342.5,244.5 Z"/></g>
<g><path style="opacity:1" fill="#d0ac97" d="M 325.5,241.5 C 323.712,241.215 322.045,241.548 320.5,242.5C 321.407,245.421 321.74,248.421 321.5,251.5C 320.691,249.708 320.191,247.708 320,245.5C 317.339,255.143 314.839,264.81 312.5,274.5C 314.978,275.694 312.978,275.861 306.5,275C 308.402,274.801 309.902,273.967 311,272.5C 313.993,262.192 316.827,251.858 319.5,241.5C 319.081,240.082 321.081,240.082 325.5,241.5 Z"/></g>
<g><path style="opacity:1" fill="#bf8c72" d="M 256.5,271.5 C 260.97,272.486 265.637,272.819 270.5,272.5C 265.652,273.814 260.652,273.814 255.5,272.5C 255.624,271.893 255.957,271.56 256.5,271.5 Z"/></g>
<g><path style="opacity:1" fill="#c3947a" d="M 363.5,274.5 C 365.167,274.5 366.833,274.5 368.5,274.5C 367.167,275.167 365.833,275.833 364.5,276.5C 363.209,276.737 362.209,276.404 361.5,275.5C 362.492,275.672 363.158,275.338 363.5,274.5 Z"/></g>
</svg>
